<svg width="50" height="50" viewBox="0 0 50 50" fill="none" xmlns="http://www.w3.org/2000/svg">
<g filter="url(#filter0_i_5_77)">
<path d="M19.1688 8.05937C19.1569 7.37706 19.281 6.69922 19.5339 6.06539C19.7868 5.43156 20.1634 4.85445 20.6417 4.36772C21.12 3.88099 21.6904 3.4944 22.3198 3.23051C22.9491 2.96662 23.6247 2.8307 24.3071 2.8307C24.9895 2.8307 25.6651 2.96662 26.2944 3.23051C26.9237 3.4944 27.4942 3.88099 27.9725 4.36772C28.4508 4.85445 28.8274 5.43156 29.0803 6.06539C29.3331 6.69922 29.4573 7.37706 29.4454 8.05937V13.9734C29.4454 14.4766 29.4094 14.9797 29.3313 15.4828C29.3015 15.6654 29.277 15.8488 29.2579 16.0328C29.2016 16.6109 29.2704 17.3672 29.6641 17.8766L28.7235 18.7828C31.1173 20.0089 33.1256 21.8728 34.5266 24.1685C35.9276 26.4643 36.6668 29.1027 36.6625 31.7922C36.6643 33.2894 36.4367 34.778 35.9875 36.2062L34.4297 46.3734H21.7719V46.3687C13.9547 46.2 7.68286 41.1031 7.68286 31.7906C7.68286 26.3187 10.3032 21.9125 14.2672 19.4281L14.2579 19.4203C14.5282 19.2328 14.8469 19.0406 15.1875 18.8359H15.1907C16.3157 18.1609 17.6907 17.3359 18.4141 15.9891C19.0438 14.8219 19.1641 12.9266 19.1641 12.0469H19.1688V8.05937Z" fill="url(#paint0_linear_5_77)"/>
</g>
<path d="M19.1688 8.05937C19.1569 7.37706 19.281 6.69922 19.5339 6.06539C19.7868 5.43156 20.1634 4.85445 20.6417 4.36772C21.12 3.88099 21.6904 3.4944 22.3198 3.23051C22.9491 2.96662 23.6247 2.8307 24.3071 2.8307C24.9895 2.8307 25.6651 2.96662 26.2944 3.23051C26.9237 3.4944 27.4942 3.88099 27.9725 4.36772C28.4508 4.85445 28.8274 5.43156 29.0803 6.06539C29.3331 6.69922 29.4573 7.37706 29.4454 8.05937V13.9734C29.4454 14.4766 29.4094 14.9797 29.3313 15.4828C29.3015 15.6654 29.277 15.8488 29.2579 16.0328C29.2016 16.6109 29.2704 17.3672 29.6641 17.8766L28.7235 18.7828C31.1173 20.0089 33.1256 21.8728 34.5266 24.1685C35.9276 26.4643 36.6668 29.1027 36.6625 31.7922C36.6643 33.2894 36.4367 34.778 35.9875 36.2062L34.4297 46.3734H21.7719V46.3687C13.9547 46.2 7.68286 41.1031 7.68286 31.7906C7.68286 26.3187 10.3032 21.9125 14.2672 19.4281L14.2579 19.4203C14.5282 19.2328 14.8469 19.0406 15.1875 18.8359H15.1907C16.3157 18.1609 17.6907 17.3359 18.4141 15.9891C19.0438 14.8219 19.1641 12.9266 19.1641 12.0469H19.1688V8.05937Z" fill="url(#paint1_radial_5_77)"/>
<path d="M19.1688 8.05937C19.1569 7.37706 19.281 6.69922 19.5339 6.06539C19.7868 5.43156 20.1634 4.85445 20.6417 4.36772C21.12 3.88099 21.6904 3.4944 22.3198 3.23051C22.9491 2.96662 23.6247 2.8307 24.3071 2.8307C24.9895 2.8307 25.6651 2.96662 26.2944 3.23051C26.9237 3.4944 27.4942 3.88099 27.9725 4.36772C28.4508 4.85445 28.8274 5.43156 29.0803 6.06539C29.3331 6.69922 29.4573 7.37706 29.4454 8.05937V13.9734C29.4454 14.4766 29.4094 14.9797 29.3313 15.4828C29.3015 15.6654 29.277 15.8488 29.2579 16.0328C29.2016 16.6109 29.2704 17.3672 29.6641 17.8766L28.7235 18.7828C31.1173 20.0089 33.1256 21.8728 34.5266 24.1685C35.9276 26.4643 36.6668 29.1027 36.6625 31.7922C36.6643 33.2894 36.4367 34.778 35.9875 36.2062L34.4297 46.3734H21.7719V46.3687C13.9547 46.2 7.68286 41.1031 7.68286 31.7906C7.68286 26.3187 10.3032 21.9125 14.2672 19.4281L14.2579 19.4203C14.5282 19.2328 14.8469 19.0406 15.1875 18.8359H15.1907C16.3157 18.1609 17.6907 17.3359 18.4141 15.9891C19.0438 14.8219 19.1641 12.9266 19.1641 12.0469H19.1688V8.05937Z" fill="url(#paint2_radial_5_77)"/>
<path d="M19.1688 8.05937C19.1569 7.37706 19.281 6.69922 19.5339 6.06539C19.7868 5.43156 20.1634 4.85445 20.6417 4.36772C21.12 3.88099 21.6904 3.4944 22.3198 3.23051C22.9491 2.96662 23.6247 2.8307 24.3071 2.8307C24.9895 2.8307 25.6651 2.96662 26.2944 3.23051C26.9237 3.4944 27.4942 3.88099 27.9725 4.36772C28.4508 4.85445 28.8274 5.43156 29.0803 6.06539C29.3331 6.69922 29.4573 7.37706 29.4454 8.05937V13.9734C29.4454 14.4766 29.4094 14.9797 29.3313 15.4828C29.3015 15.6654 29.277 15.8488 29.2579 16.0328C29.2016 16.6109 29.2704 17.3672 29.6641 17.8766L28.7235 18.7828C31.1173 20.0089 33.1256 21.8728 34.5266 24.1685C35.9276 26.4643 36.6668 29.1027 36.6625 31.7922C36.6643 33.2894 36.4367 34.778 35.9875 36.2062L34.4297 46.3734H21.7719V46.3687C13.9547 46.2 7.68286 41.1031 7.68286 31.7906C7.68286 26.3187 10.3032 21.9125 14.2672 19.4281L14.2579 19.4203C14.5282 19.2328 14.8469 19.0406 15.1875 18.8359H15.1907C16.3157 18.1609 17.6907 17.3359 18.4141 15.9891C19.0438 14.8219 19.1641 12.9266 19.1641 12.0469H19.1688V8.05937Z" fill="url(#paint3_radial_5_77)"/>
<path d="M19.1688 8.05937C19.1569 7.37706 19.281 6.69922 19.5339 6.06539C19.7868 5.43156 20.1634 4.85445 20.6417 4.36772C21.12 3.88099 21.6904 3.4944 22.3198 3.23051C22.9491 2.96662 23.6247 2.8307 24.3071 2.8307C24.9895 2.8307 25.6651 2.96662 26.2944 3.23051C26.9237 3.4944 27.4942 3.88099 27.9725 4.36772C28.4508 4.85445 28.8274 5.43156 29.0803 6.06539C29.3331 6.69922 29.4573 7.37706 29.4454 8.05937V13.9734C29.4454 14.4766 29.4094 14.9797 29.3313 15.4828C29.3015 15.6654 29.277 15.8488 29.2579 16.0328C29.2016 16.6109 29.2704 17.3672 29.6641 17.8766L28.7235 18.7828C31.1173 20.0089 33.1256 21.8728 34.5266 24.1685C35.9276 26.4643 36.6668 29.1027 36.6625 31.7922C36.6643 33.2894 36.4367 34.778 35.9875 36.2062L34.4297 46.3734H21.7719V46.3687C13.9547 46.2 7.68286 41.1031 7.68286 31.7906C7.68286 26.3187 10.3032 21.9125 14.2672 19.4281L14.2579 19.4203C14.5282 19.2328 14.8469 19.0406 15.1875 18.8359H15.1907C16.3157 18.1609 17.6907 17.3359 18.4141 15.9891C19.0438 14.8219 19.1641 12.9266 19.1641 12.0469H19.1688V8.05937Z" fill="url(#paint4_linear_5_77)"/>
<g filter="url(#filter1_f_5_77)">
<path d="M36.9985 22.9828C36.9985 21.9252 36.5784 20.911 35.8306 20.1632C35.0828 19.4154 34.0686 18.9953 33.011 18.9953H28.5954C27.7767 18.9953 26.9778 19.2473 26.3072 19.7171C25.6367 20.1869 25.127 20.8518 24.8475 21.6213C24.5679 22.3908 24.532 23.2278 24.7447 24.0184C24.9573 24.8091 25.4082 25.5151 26.036 26.0406C25.5574 26.4012 25.166 26.8648 24.8908 27.3971C24.6156 27.9294 24.4637 28.5168 24.4463 29.1158C24.4289 29.7148 24.5464 30.31 24.7902 30.8574C25.0341 31.4048 25.3979 31.8904 25.8548 32.2781C25.4129 32.6522 25.058 33.1182 24.8148 33.6437C24.5716 34.1691 24.4461 34.7413 24.447 35.3203V35.5156C24.447 36.6094 24.8845 37.5984 25.597 38.3187C25.0503 38.8596 24.6768 39.5508 24.5237 40.3044C24.3707 41.0581 24.445 41.8402 24.7374 42.5514C25.0297 43.2627 25.5269 43.8711 26.1657 44.2993C26.8045 44.7274 27.5561 44.9561 28.3251 44.9562H32.7063C33.3881 44.9567 34.058 44.7775 34.6485 44.4367C35.239 44.0958 35.7292 43.6054 36.0698 43.0148C36.4104 42.4242 36.5894 41.7543 36.5887 41.0725C36.5879 40.3907 36.4076 39.7211 36.0657 39.1312C36.7535 38.81 37.3353 38.2991 37.7427 37.6586C38.1501 37.0182 38.3663 36.2747 38.3657 35.5156V35.3203C38.3657 34.0859 37.8063 32.9828 36.9251 32.2516C37.4273 31.8151 37.8128 31.2602 38.0465 30.6372C38.2803 30.0143 38.3551 29.3428 38.264 28.6837C38.1729 28.0246 37.919 27.3985 37.525 26.8623C37.1311 26.326 36.6097 25.8965 36.0079 25.6125C36.6478 24.8861 37.0001 23.9508 36.9985 22.9828Z" fill="url(#paint5_linear_5_77)"/>
</g>
<g filter="url(#filter2_i_5_77)">
<path d="M36.011 25.8594C38.5222 25.8594 40.5579 23.8237 40.5579 21.3125C40.5579 18.8013 38.5222 16.7656 36.011 16.7656H30.975C28.4639 16.7656 26.4282 18.8013 26.4282 21.3125C26.4282 23.8237 28.4639 25.8594 30.975 25.8594H36.011Z" fill="url(#paint6_linear_5_77)"/>
<path d="M36.011 25.8594C38.5222 25.8594 40.5579 23.8237 40.5579 21.3125C40.5579 18.8013 38.5222 16.7656 36.011 16.7656H30.975C28.4639 16.7656 26.4282 18.8013 26.4282 21.3125C26.4282 23.8237 28.4639 25.8594 30.975 25.8594H36.011Z" fill="url(#paint7_radial_5_77)"/>
</g>
<g filter="url(#filter3_i_5_77)">
<path d="M35.6641 46.3734C38.108 46.3734 40.0891 44.3923 40.0891 41.9484C40.0891 39.5046 38.108 37.5234 35.6641 37.5234H30.6688C28.2249 37.5234 26.2438 39.5046 26.2438 41.9484C26.2438 44.3923 28.2249 46.3734 30.6688 46.3734H35.6641Z" fill="url(#paint8_linear_5_77)"/>
<path d="M35.6641 46.3734C38.108 46.3734 40.0891 44.3923 40.0891 41.9484C40.0891 39.5046 38.108 37.5234 35.6641 37.5234H30.6688C28.2249 37.5234 26.2438 39.5046 26.2438 41.9484C26.2438 44.3923 28.2249 46.3734 30.6688 46.3734H35.6641Z" fill="url(#paint9_radial_5_77)"/>
<path d="M35.6641 46.3734C38.108 46.3734 40.0891 44.3923 40.0891 41.9484C40.0891 39.5046 38.108 37.5234 35.6641 37.5234H30.6688C28.2249 37.5234 26.2438 39.5046 26.2438 41.9484C26.2438 44.3923 28.2249 46.3734 30.6688 46.3734H35.6641Z" fill="url(#paint10_radial_5_77)"/>
</g>
<path d="M35.6641 46.3734C38.108 46.3734 40.0891 44.3923 40.0891 41.9484C40.0891 39.5046 38.108 37.5234 35.6641 37.5234H30.6688C28.2249 37.5234 26.2438 39.5046 26.2438 41.9484C26.2438 44.3923 28.2249 46.3734 30.6688 46.3734H35.6641Z" fill="url(#paint11_linear_5_77)"/>
<path d="M35.6641 46.3734C38.108 46.3734 40.0891 44.3923 40.0891 41.9484C40.0891 39.5046 38.108 37.5234 35.6641 37.5234H30.6688C28.2249 37.5234 26.2438 39.5046 26.2438 41.9484C26.2438 44.3923 28.2249 46.3734 30.6688 46.3734H35.6641Z" fill="url(#paint12_radial_5_77)"/>
<g filter="url(#filter4_f_5_77)">
<path d="M37.8969 40.1547H31.8126C31.1757 40.1547 30.6594 40.671 30.6594 41.3078C30.6594 41.9447 31.1757 42.4609 31.8126 42.4609H37.8969C38.5338 42.4609 39.0501 41.9447 39.0501 41.3078C39.0501 40.671 38.5338 40.1547 37.8969 40.1547Z" fill="url(#paint13_linear_5_77)"/>
</g>
<path d="M37.4578 40.1547C40.0311 40.1547 42.1172 38.0686 42.1172 35.4953C42.1172 32.922 40.0311 30.8359 37.4578 30.8359H30.9031C28.3298 30.8359 26.2438 32.922 26.2438 35.4953C26.2438 38.0686 28.3298 40.1547 30.9031 40.1547H37.4578Z" fill="#C4C4C4" fill-opacity="0.66"/>
<g filter="url(#filter5_i_5_77)">
<path d="M42.1172 35.6078V35.3828C42.1172 32.8716 40.0815 30.8359 37.5703 30.8359H30.7906C28.2795 30.8359 26.2438 32.8716 26.2438 35.3828V35.6078C26.2438 38.119 28.2795 40.1547 30.7906 40.1547H37.5703C40.0815 40.1547 42.1172 38.119 42.1172 35.6078Z" fill="url(#paint14_linear_5_77)"/>
<path d="M42.1172 35.6078V35.3828C42.1172 32.8716 40.0815 30.8359 37.5703 30.8359H30.7906C28.2795 30.8359 26.2438 32.8716 26.2438 35.3828V35.6078C26.2438 38.119 28.2795 40.1547 30.7906 40.1547H37.5703C40.0815 40.1547 42.1172 38.119 42.1172 35.6078Z" fill="url(#paint15_radial_5_77)"/>
<path d="M42.1172 35.6078V35.3828C42.1172 32.8716 40.0815 30.8359 37.5703 30.8359H30.7906C28.2795 30.8359 26.2438 32.8716 26.2438 35.3828V35.6078C26.2438 38.119 28.2795 40.1547 30.7906 40.1547H37.5703C40.0815 40.1547 42.1172 38.119 42.1172 35.6078Z" fill="url(#paint16_radial_5_77)"/>
</g>
<g filter="url(#filter6_f_5_77)">
<path d="M39.4047 34.1078H31.2032C30.5663 34.1078 30.05 34.6241 30.05 35.2609C30.05 35.8978 30.5663 36.4141 31.2032 36.4141H39.4047C40.0416 36.4141 40.5579 35.8978 40.5579 35.2609C40.5579 34.6241 40.0416 34.1078 39.4047 34.1078Z" fill="url(#paint17_linear_5_77)"/>
</g>
<g filter="url(#filter7_i_5_77)">
<path d="M42.0469 28.4484V28.4281C42.0469 25.9169 40.0112 23.8812 37.5 23.8812H30.7906C28.2795 23.8812 26.2437 25.9169 26.2437 28.4281V28.4484C26.2437 30.9596 28.2795 32.9953 30.7906 32.9953H37.5C40.0112 32.9953 42.0469 30.9596 42.0469 28.4484Z" fill="url(#paint18_linear_5_77)"/>
<path d="M42.0469 28.4484V28.4281C42.0469 25.9169 40.0112 23.8812 37.5 23.8812H30.7906C28.2795 23.8812 26.2437 25.9169 26.2437 28.4281V28.4484C26.2437 30.9596 28.2795 32.9953 30.7906 32.9953H37.5C40.0112 32.9953 42.0469 30.9596 42.0469 28.4484Z" fill="url(#paint19_radial_5_77)"/>
</g>
<path d="M24.3062 2.92188C22.9438 2.92229 21.6373 3.46369 20.6739 4.42707C19.7106 5.39045 19.1692 6.69695 19.1687 8.05938V12.0484L19.1656 12.0469C19.1656 12.925 19.0438 14.8219 18.4156 15.9891C17.6891 17.3375 16.3156 18.1609 15.1906 18.8344C14.8469 19.0406 14.5281 19.2313 14.2578 19.4188C15.8125 20.6641 18.9953 23.1531 19.0734 23.0938C20.8827 22.1151 22.6974 21.1464 24.5172 20.1875L24.4422 19.1094C25.7809 19.0739 27.0529 18.5173 27.9874 17.5581C28.9219 16.5988 29.445 15.3126 29.4453 13.9734V8.05938C29.4449 6.69668 28.9033 5.38994 27.9396 4.42652C26.9758 3.4631 25.6689 2.92187 24.3062 2.92188Z" fill="url(#paint20_radial_5_77)"/>
<path d="M24.3062 2.92188C22.9438 2.92229 21.6373 3.46369 20.6739 4.42707C19.7106 5.39045 19.1692 6.69695 19.1687 8.05938V12.0484L19.1656 12.0469C19.1656 12.925 19.0438 14.8219 18.4156 15.9891C17.6891 17.3375 16.3156 18.1609 15.1906 18.8344C14.8469 19.0406 14.5281 19.2313 14.2578 19.4188C15.8125 20.6641 18.9953 23.1531 19.0734 23.0938C20.8827 22.1151 22.6974 21.1464 24.5172 20.1875L24.4422 19.1094C25.7809 19.0739 27.0529 18.5173 27.9874 17.5581C28.9219 16.5988 29.445 15.3126 29.4453 13.9734V8.05938C29.4449 6.69668 28.9033 5.38994 27.9396 4.42652C26.9758 3.4631 25.6689 2.92187 24.3062 2.92188Z" fill="url(#paint21_radial_5_77)"/>
<path d="M21.0563 4.07968C20.4658 4.56115 19.99 5.16815 19.6635 5.85656C19.337 6.54496 19.168 7.29746 19.1688 8.05937V8.35937H21.4907C21.5003 7.75862 21.4553 7.15823 21.3563 6.56562L21.3298 6.42343C21.2016 5.72343 21.0548 4.92343 21.0563 4.07968Z" fill="#FFBF71"/>
<path d="M21.0563 4.07968C20.4658 4.56115 19.99 5.16815 19.6635 5.85656C19.337 6.54496 19.168 7.29746 19.1688 8.05937V8.35937H21.4907C21.5003 7.75862 21.4553 7.15823 21.3563 6.56562L21.3298 6.42343C21.2016 5.72343 21.0548 4.92343 21.0563 4.07968Z" fill="url(#paint22_radial_5_77)"/>
<g filter="url(#filter8_f_5_77)">
<path d="M37.0844 18.0062H31.4281C30.3426 18.0062 29.4625 18.8863 29.4625 19.9719C29.4625 21.0574 30.3426 21.9375 31.4281 21.9375H37.0844C38.17 21.9375 39.05 21.0574 39.05 19.9719C39.05 18.8863 38.17 18.0062 37.0844 18.0062Z" fill="url(#paint23_linear_5_77)"/>
</g>
<g filter="url(#filter9_f_5_77)">
<path d="M38.5922 25H31.3172C30.2316 25 29.3516 25.88 29.3516 26.9656C29.3516 28.0512 30.2316 28.9313 31.3172 28.9313H38.5922C39.6778 28.9313 40.5578 28.0512 40.5578 26.9656C40.5578 25.88 39.6778 25 38.5922 25Z" fill="url(#paint24_linear_5_77)"/>
</g>
<g filter="url(#filter10_f_5_77)">
<path d="M28.1484 7.10157C28.1484 5.86497 27.1463 4.8625 25.9102 4.8625C24.674 4.8625 23.6719 5.86497 23.6719 7.10157V15.1188C23.6719 16.3554 24.674 17.3578 25.9102 17.3578C27.1463 17.3578 28.1484 16.3554 28.1484 15.1188V7.10157Z" fill="url(#paint25_linear_5_77)"/>
</g>
<defs>
<filter id="filter0_i_5_77" x="7.68286" y="2.8307" width="29.4797" height="43.5427" filterUnits="userSpaceOnUse" color-interpolation-filters="sRGB">
<feFlood flood-opacity="0" result="BackgroundImageFix"/>
<feBlend mode="normal" in="SourceGraphic" in2="BackgroundImageFix" result="shape"/>
<feColorMatrix in="SourceAlpha" type="matrix" values="0 0 0 0 0 0 0 0 0 0 0 0 0 0 0 0 0 0 127 0" result="hardAlpha"/>
<feOffset dx="0.5"/>
<feGaussianBlur stdDeviation="1"/>
<feComposite in2="hardAlpha" operator="arithmetic" k2="-1" k3="1"/>
<feColorMatrix type="matrix" values="0 0 0 0 0.847059 0 0 0 0 0.458824 0 0 0 0 0.360784 0 0 0 1 0"/>
<feBlend mode="normal" in2="shape" result="effect1_innerShadow_5_77"/>
</filter>
<filter id="filter1_f_5_77" x="22.4446" y="16.9953" width="17.9211" height="29.9609" filterUnits="userSpaceOnUse" color-interpolation-filters="sRGB">
<feFlood flood-opacity="0" result="BackgroundImageFix"/>
<feBlend mode="normal" in="SourceGraphic" in2="BackgroundImageFix" result="shape"/>
<feGaussianBlur stdDeviation="1" result="effect1_foregroundBlur_5_77"/>
</filter>
<filter id="filter2_i_5_77" x="26.4282" y="16.7656" width="14.6296" height="9.09375" filterUnits="userSpaceOnUse" color-interpolation-filters="sRGB">
<feFlood flood-opacity="0" result="BackgroundImageFix"/>
<feBlend mode="normal" in="SourceGraphic" in2="BackgroundImageFix" result="shape"/>
<feColorMatrix in="SourceAlpha" type="matrix" values="0 0 0 0 0 0 0 0 0 0 0 0 0 0 0 0 0 0 127 0" result="hardAlpha"/>
<feOffset dx="0.5"/>
<feGaussianBlur stdDeviation="0.75"/>
<feComposite in2="hardAlpha" operator="arithmetic" k2="-1" k3="1"/>
<feColorMatrix type="matrix" values="0 0 0 0 0.878431 0 0 0 0 0.541176 0 0 0 0 0.0627451 0 0 0 1 0"/>
<feBlend mode="normal" in2="shape" result="effect1_innerShadow_5_77"/>
</filter>
<filter id="filter3_i_5_77" x="26.2438" y="37.0234" width="14.3453" height="9.35001" filterUnits="userSpaceOnUse" color-interpolation-filters="sRGB">
<feFlood flood-opacity="0" result="BackgroundImageFix"/>
<feBlend mode="normal" in="SourceGraphic" in2="BackgroundImageFix" result="shape"/>
<feColorMatrix in="SourceAlpha" type="matrix" values="0 0 0 0 0 0 0 0 0 0 0 0 0 0 0 0 0 0 127 0" result="hardAlpha"/>
<feOffset dx="0.5" dy="-0.5"/>
<feGaussianBlur stdDeviation="0.75"/>
<feComposite in2="hardAlpha" operator="arithmetic" k2="-1" k3="1"/>
<feColorMatrix type="matrix" values="0 0 0 0 0.941176 0 0 0 0 0.643137 0 0 0 0 0.215686 0 0 0 1 0"/>
<feBlend mode="normal" in2="shape" result="effect1_innerShadow_5_77"/>
</filter>
<filter id="filter4_f_5_77" x="29.4094" y="38.9047" width="10.8906" height="4.80624" filterUnits="userSpaceOnUse" color-interpolation-filters="sRGB">
<feFlood flood-opacity="0" result="BackgroundImageFix"/>
<feBlend mode="normal" in="SourceGraphic" in2="BackgroundImageFix" result="shape"/>
<feGaussianBlur stdDeviation="0.625" result="effect1_foregroundBlur_5_77"/>
</filter>
<filter id="filter5_i_5_77" x="26.2438" y="30.3359" width="16.3734" height="9.81876" filterUnits="userSpaceOnUse" color-interpolation-filters="sRGB">
<feFlood flood-opacity="0" result="BackgroundImageFix"/>
<feBlend mode="normal" in="SourceGraphic" in2="BackgroundImageFix" result="shape"/>
<feColorMatrix in="SourceAlpha" type="matrix" values="0 0 0 0 0 0 0 0 0 0 0 0 0 0 0 0 0 0 127 0" result="hardAlpha"/>
<feOffset dx="0.5" dy="-0.5"/>
<feGaussianBlur stdDeviation="0.75"/>
<feComposite in2="hardAlpha" operator="arithmetic" k2="-1" k3="1"/>
<feColorMatrix type="matrix" values="0 0 0 0 0.941176 0 0 0 0 0.643137 0 0 0 0 0.215686 0 0 0 1 0"/>
<feBlend mode="normal" in2="shape" result="effect1_innerShadow_5_77"/>
</filter>
<filter id="filter6_f_5_77" x="28.8" y="32.8578" width="13.0078" height="4.80624" filterUnits="userSpaceOnUse" color-interpolation-filters="sRGB">
<feFlood flood-opacity="0" result="BackgroundImageFix"/>
<feBlend mode="normal" in="SourceGraphic" in2="BackgroundImageFix" result="shape"/>
<feGaussianBlur stdDeviation="0.625" result="effect1_foregroundBlur_5_77"/>
</filter>
<filter id="filter7_i_5_77" x="26.2438" y="23.3812" width="16.3031" height="9.61406" filterUnits="userSpaceOnUse" color-interpolation-filters="sRGB">
<feFlood flood-opacity="0" result="BackgroundImageFix"/>
<feBlend mode="normal" in="SourceGraphic" in2="BackgroundImageFix" result="shape"/>
<feColorMatrix in="SourceAlpha" type="matrix" values="0 0 0 0 0 0 0 0 0 0 0 0 0 0 0 0 0 0 127 0" result="hardAlpha"/>
<feOffset dx="0.5" dy="-0.5"/>
<feGaussianBlur stdDeviation="0.75"/>
<feComposite in2="hardAlpha" operator="arithmetic" k2="-1" k3="1"/>
<feColorMatrix type="matrix" values="0 0 0 0 0.941176 0 0 0 0 0.643137 0 0 0 0 0.215686 0 0 0 1 0"/>
<feBlend mode="normal" in2="shape" result="effect1_innerShadow_5_77"/>
</filter>
<filter id="filter8_f_5_77" x="28.2125" y="16.7562" width="12.0875" height="6.43124" filterUnits="userSpaceOnUse" color-interpolation-filters="sRGB">
<feFlood flood-opacity="0" result="BackgroundImageFix"/>
<feBlend mode="normal" in="SourceGraphic" in2="BackgroundImageFix" result="shape"/>
<feGaussianBlur stdDeviation="0.625" result="effect1_foregroundBlur_5_77"/>
</filter>
<filter id="filter9_f_5_77" x="28.1016" y="23.75" width="13.7063" height="6.43124" filterUnits="userSpaceOnUse" color-interpolation-filters="sRGB">
<feFlood flood-opacity="0" result="BackgroundImageFix"/>
<feBlend mode="normal" in="SourceGraphic" in2="BackgroundImageFix" result="shape"/>
<feGaussianBlur stdDeviation="0.625" result="effect1_foregroundBlur_5_77"/>
</filter>
<filter id="filter10_f_5_77" x="22.4219" y="3.6125" width="6.97656" height="14.9953" filterUnits="userSpaceOnUse" color-interpolation-filters="sRGB">
<feFlood flood-opacity="0" result="BackgroundImageFix"/>
<feBlend mode="normal" in="SourceGraphic" in2="BackgroundImageFix" result="shape"/>
<feGaussianBlur stdDeviation="0.625" result="effect1_foregroundBlur_5_77"/>
</filter>
<linearGradient id="paint0_linear_5_77" x1="30.0844" y1="10.3734" x2="14.361" y2="43.4797" gradientUnits="userSpaceOnUse">
<stop stop-color="#FFCA44"/>
<stop offset="1" stop-color="#F8A528"/>
</linearGradient>
<radialGradient id="paint1_radial_5_77" cx="0" cy="0" r="1" gradientUnits="userSpaceOnUse" gradientTransform="translate(31.9379 7.57035) rotate(141.116) scale(7.83694 23.1303)">
<stop stop-color="#FFE34C"/>
<stop offset="1" stop-color="#FFE34C" stop-opacity="0"/>
</radialGradient>
<radialGradient id="paint2_radial_5_77" cx="0" cy="0" r="1" gradientUnits="userSpaceOnUse" gradientTransform="translate(17.6697 24.6485) rotate(125.191) scale(11.6097 8.41025)">
<stop stop-color="#FFCA2E"/>
<stop offset="1" stop-color="#FFCA2E" stop-opacity="0"/>
</radialGradient>
<radialGradient id="paint3_radial_5_77" cx="0" cy="0" r="1" gradientUnits="userSpaceOnUse" gradientTransform="translate(30.2657 28.3297) rotate(146.743) scale(25.298 44.2723)">
<stop offset="0.681" stop-color="#E18E3F" stop-opacity="0"/>
<stop offset="1" stop-color="#E18E3F"/>
</radialGradient>
<linearGradient id="paint4_linear_5_77" x1="22.1719" y1="39.9406" x2="22.1719" y2="47.9109" gradientUnits="userSpaceOnUse">
<stop stop-color="#D8796F" stop-opacity="0"/>
<stop offset="1" stop-color="#D8796F"/>
</linearGradient>
<linearGradient id="paint5_linear_5_77" x1="31.4063" y1="18.9953" x2="31.4063" y2="39.7578" gradientUnits="userSpaceOnUse">
<stop stop-color="#D1730B"/>
<stop offset="1" stop-color="#E27D47"/>
</linearGradient>
<linearGradient id="paint6_linear_5_77" x1="40.5579" y1="21.3125" x2="26.4266" y2="21.3125" gradientUnits="userSpaceOnUse">
<stop stop-color="#FFDB44"/>
<stop offset="1" stop-color="#F9A928"/>
</linearGradient>
<radialGradient id="paint7_radial_5_77" cx="0" cy="0" r="1" gradientUnits="userSpaceOnUse" gradientTransform="translate(28.725 25.3438) rotate(-142.633) scale(3.62672 2.42762)">
<stop stop-color="#D98320"/>
<stop offset="1" stop-color="#D98320" stop-opacity="0"/>
</radialGradient>
<linearGradient id="paint8_linear_5_77" x1="38.8766" y1="41.9469" x2="26.2438" y2="41.9469" gradientUnits="userSpaceOnUse">
<stop stop-color="#FFDB44"/>
<stop offset="1" stop-color="#F9A928"/>
</linearGradient>
<radialGradient id="paint9_radial_5_77" cx="0" cy="0" r="1" gradientUnits="userSpaceOnUse" gradientTransform="translate(29.0485 46.3719) scale(11.4273 4.34722)">
<stop stop-color="#F29545"/>
<stop offset="1" stop-color="#F29545" stop-opacity="0"/>
</radialGradient>
<radialGradient id="paint10_radial_5_77" cx="0" cy="0" r="1" gradientUnits="userSpaceOnUse" gradientTransform="translate(28.5 39.075) scale(11.5889 3.11087)">
<stop stop-color="#DA810B"/>
<stop offset="1" stop-color="#FFB610" stop-opacity="0"/>
</radialGradient>
<linearGradient id="paint11_linear_5_77" x1="33.1657" y1="47.2844" x2="33.1657" y2="44.4219" gradientUnits="userSpaceOnUse">
<stop stop-color="#DC7C6A"/>
<stop offset="1" stop-color="#DC7C6A" stop-opacity="0"/>
</linearGradient>
<radialGradient id="paint12_radial_5_77" cx="0" cy="0" r="1" gradientUnits="userSpaceOnUse" gradientTransform="translate(24.411 41.9469) scale(8.75506 13.1605)">
<stop stop-color="#E38811"/>
<stop offset="1" stop-color="#E38811" stop-opacity="0"/>
</radialGradient>
<linearGradient id="paint13_linear_5_77" x1="38.6141" y1="40.7859" x2="29.5688" y2="40.7859" gradientUnits="userSpaceOnUse">
<stop stop-color="#FFF166"/>
<stop offset="1" stop-color="#FFF166" stop-opacity="0"/>
</linearGradient>
<linearGradient id="paint14_linear_5_77" x1="40.7266" y1="35.4953" x2="26.2438" y2="35.4953" gradientUnits="userSpaceOnUse">
<stop stop-color="#FFDB44"/>
<stop offset="1" stop-color="#F9A928"/>
</linearGradient>
<radialGradient id="paint15_radial_5_77" cx="0" cy="0" r="1" gradientUnits="userSpaceOnUse" gradientTransform="translate(29.4594 40.1547) scale(13.1018 4.57761)">
<stop stop-color="#F29545"/>
<stop offset="1" stop-color="#F29545" stop-opacity="0"/>
</radialGradient>
<radialGradient id="paint16_radial_5_77" cx="0" cy="0" r="1" gradientUnits="userSpaceOnUse" gradientTransform="translate(28.8297 32.4719) scale(13.2871 3.27575)">
<stop stop-color="#DA810B"/>
<stop offset="1" stop-color="#FFB610" stop-opacity="0"/>
</radialGradient>
<linearGradient id="paint17_linear_5_77" x1="40.011" y1="34.7391" x2="28.686" y2="34.7391" gradientUnits="userSpaceOnUse">
<stop stop-color="#FFF166"/>
<stop offset="1" stop-color="#FFF166" stop-opacity="0"/>
</linearGradient>
<linearGradient id="paint18_linear_5_77" x1="42.0469" y1="28.4391" x2="26.2453" y2="28.4391" gradientUnits="userSpaceOnUse">
<stop stop-color="#FFDB44"/>
<stop offset="1" stop-color="#F9A928"/>
</linearGradient>
<radialGradient id="paint19_radial_5_77" cx="0" cy="0" r="1" gradientUnits="userSpaceOnUse" gradientTransform="translate(29.5125 31.8937) scale(8.5948 3.82573)">
<stop stop-color="#F29545"/>
<stop offset="1" stop-color="#F29545" stop-opacity="0"/>
</radialGradient>
<radialGradient id="paint20_radial_5_77" cx="0" cy="0" r="1" gradientUnits="userSpaceOnUse" gradientTransform="translate(19.5891 7.56875) rotate(90) scale(9.9377 3.68973)">
<stop stop-color="#F3A52A"/>
<stop offset="1" stop-color="#F3A52A" stop-opacity="0"/>
</radialGradient>
<radialGradient id="paint21_radial_5_77" cx="0" cy="0" r="1" gradientUnits="userSpaceOnUse" gradientTransform="translate(16.6875 14.1125) rotate(42.9975) scale(4.97761 7.53196)">
<stop stop-color="#CDA25E"/>
<stop offset="1" stop-color="#CDA25E" stop-opacity="0"/>
</radialGradient>
<radialGradient id="paint22_radial_5_77" cx="0" cy="0" r="1" gradientUnits="userSpaceOnUse" gradientTransform="translate(21.8541 6.95452) rotate(-168.366) scale(2.56166 5.59139)">
<stop offset="0.55" stop-color="#CCB28B" stop-opacity="0"/>
<stop offset="1" stop-color="#CCB28B"/>
</radialGradient>
<linearGradient id="paint23_linear_5_77" x1="38.5516" y1="19.0844" x2="28.2172" y2="19.0844" gradientUnits="userSpaceOnUse">
<stop stop-color="#FFF166"/>
<stop offset="1" stop-color="#FFF166" stop-opacity="0"/>
</linearGradient>
<linearGradient id="paint24_linear_5_77" x1="39.975" y1="26.0781" x2="27.8953" y2="26.0781" gradientUnits="userSpaceOnUse">
<stop stop-color="#FFF166"/>
<stop offset="1" stop-color="#FFF166" stop-opacity="0"/>
</linearGradient>
<linearGradient id="paint25_linear_5_77" x1="27.9172" y1="8.28907" x2="23.0906" y2="8.28907" gradientUnits="userSpaceOnUse">
<stop stop-color="#FFF166"/>
<stop offset="1" stop-color="#FFF166" stop-opacity="0"/>
</linearGradient>
</defs>
</svg>
