<svg width="36" height="45" viewBox="0 0 36 45" fill="none" xmlns="http://www.w3.org/2000/svg">
<g filter="url(#filter0_i_5_659)">
<path d="M23.8312 38.9406C23.8431 39.623 23.719 40.3008 23.4661 40.9346C23.2132 41.5685 22.8366 42.1456 22.3583 42.6323C21.88 43.119 21.3096 43.5056 20.6802 43.7695C20.0509 44.0334 19.3753 44.1693 18.6929 44.1693C18.0105 44.1693 17.3349 44.0334 16.7056 43.7695C16.0763 43.5056 15.5058 43.119 15.0275 42.6323C14.5492 42.1456 14.1726 41.5685 13.9197 40.9346C13.6669 40.3008 13.5427 39.623 13.5546 38.9406V33.0266C13.5546 32.5235 13.5906 32.0203 13.6687 31.5172C13.6985 31.3346 13.723 31.1512 13.7421 30.9672C13.7984 30.3891 13.7296 29.6328 13.3359 29.1235L14.2765 28.2172C11.8827 26.9911 9.87443 25.1272 8.47341 22.8315C7.0724 20.5357 6.33319 17.8973 6.33745 15.2078C6.33567 13.7106 6.56331 12.222 7.01245 10.7938L8.57026 0.626583H21.2281V0.631271C29.0453 0.800022 35.3171 5.8969 35.3171 15.2094C35.3171 20.6813 32.6968 25.0875 28.7328 27.5719L28.7421 27.5797C28.4718 27.7672 28.1531 27.9594 27.8125 28.1641H27.8093C26.6843 28.8391 25.3093 29.6641 24.5859 31.011C23.9562 32.1781 23.8359 34.0735 23.8359 34.9531H23.8312V38.9406Z" fill="url(#paint0_linear_5_659)"/>
</g>
<path d="M23.8312 38.9406C23.8431 39.623 23.719 40.3008 23.4661 40.9346C23.2132 41.5685 22.8366 42.1456 22.3583 42.6323C21.88 43.119 21.3096 43.5056 20.6802 43.7695C20.0509 44.0334 19.3753 44.1693 18.6929 44.1693C18.0105 44.1693 17.3349 44.0334 16.7056 43.7695C16.0763 43.5056 15.5058 43.119 15.0275 42.6323C14.5492 42.1456 14.1726 41.5685 13.9197 40.9346C13.6669 40.3008 13.5427 39.623 13.5546 38.9406V33.0266C13.5546 32.5235 13.5906 32.0203 13.6687 31.5172C13.6985 31.3346 13.723 31.1512 13.7421 30.9672C13.7984 30.3891 13.7296 29.6328 13.3359 29.1235L14.2765 28.2172C11.8827 26.9911 9.87443 25.1272 8.47341 22.8315C7.0724 20.5357 6.33319 17.8973 6.33745 15.2078C6.33567 13.7106 6.56331 12.222 7.01245 10.7938L8.57026 0.626583H21.2281V0.631271C29.0453 0.800022 35.3171 5.8969 35.3171 15.2094C35.3171 20.6813 32.6968 25.0875 28.7328 27.5719L28.7421 27.5797C28.4718 27.7672 28.1531 27.9594 27.8125 28.1641H27.8093C26.6843 28.8391 25.3093 29.6641 24.5859 31.011C23.9562 32.1781 23.8359 34.0735 23.8359 34.9531H23.8312V38.9406Z" fill="url(#paint1_radial_5_659)"/>
<path d="M23.8312 38.9406C23.8431 39.623 23.719 40.3008 23.4661 40.9346C23.2132 41.5685 22.8366 42.1456 22.3583 42.6323C21.88 43.119 21.3096 43.5056 20.6802 43.7695C20.0509 44.0334 19.3753 44.1693 18.6929 44.1693C18.0105 44.1693 17.3349 44.0334 16.7056 43.7695C16.0763 43.5056 15.5058 43.119 15.0275 42.6323C14.5492 42.1456 14.1726 41.5685 13.9197 40.9346C13.6669 40.3008 13.5427 39.623 13.5546 38.9406V33.0266C13.5546 32.5235 13.5906 32.0203 13.6687 31.5172C13.6985 31.3346 13.723 31.1512 13.7421 30.9672C13.7984 30.3891 13.7296 29.6328 13.3359 29.1235L14.2765 28.2172C11.8827 26.9911 9.87443 25.1272 8.47341 22.8315C7.0724 20.5357 6.33319 17.8973 6.33745 15.2078C6.33567 13.7106 6.56331 12.222 7.01245 10.7938L8.57026 0.626583H21.2281V0.631271C29.0453 0.800022 35.3171 5.8969 35.3171 15.2094C35.3171 20.6813 32.6968 25.0875 28.7328 27.5719L28.7421 27.5797C28.4718 27.7672 28.1531 27.9594 27.8125 28.1641H27.8093C26.6843 28.8391 25.3093 29.6641 24.5859 31.011C23.9562 32.1781 23.8359 34.0735 23.8359 34.9531H23.8312V38.9406Z" fill="url(#paint2_radial_5_659)"/>
<path d="M23.8312 38.9406C23.8431 39.623 23.719 40.3008 23.4661 40.9346C23.2132 41.5685 22.8366 42.1456 22.3583 42.6323C21.88 43.119 21.3096 43.5056 20.6802 43.7695C20.0509 44.0334 19.3753 44.1693 18.6929 44.1693C18.0105 44.1693 17.3349 44.0334 16.7056 43.7695C16.0763 43.5056 15.5058 43.119 15.0275 42.6323C14.5492 42.1456 14.1726 41.5685 13.9197 40.9346C13.6669 40.3008 13.5427 39.623 13.5546 38.9406V33.0266C13.5546 32.5235 13.5906 32.0203 13.6687 31.5172C13.6985 31.3346 13.723 31.1512 13.7421 30.9672C13.7984 30.3891 13.7296 29.6328 13.3359 29.1235L14.2765 28.2172C11.8827 26.9911 9.87443 25.1272 8.47341 22.8315C7.0724 20.5357 6.33319 17.8973 6.33745 15.2078C6.33567 13.7106 6.56331 12.222 7.01245 10.7938L8.57026 0.626583H21.2281V0.631271C29.0453 0.800022 35.3171 5.8969 35.3171 15.2094C35.3171 20.6813 32.6968 25.0875 28.7328 27.5719L28.7421 27.5797C28.4718 27.7672 28.1531 27.9594 27.8125 28.1641H27.8093C26.6843 28.8391 25.3093 29.6641 24.5859 31.011C23.9562 32.1781 23.8359 34.0735 23.8359 34.9531H23.8312V38.9406Z" fill="url(#paint3_radial_5_659)"/>
<path d="M23.8312 38.9406C23.8431 39.623 23.719 40.3008 23.4661 40.9346C23.2132 41.5685 22.8366 42.1456 22.3583 42.6323C21.88 43.119 21.3096 43.5056 20.6802 43.7695C20.0509 44.0334 19.3753 44.1693 18.6929 44.1693C18.0105 44.1693 17.3349 44.0334 16.7056 43.7695C16.0763 43.5056 15.5058 43.119 15.0275 42.6323C14.5492 42.1456 14.1726 41.5685 13.9197 40.9346C13.6669 40.3008 13.5427 39.623 13.5546 38.9406V33.0266C13.5546 32.5235 13.5906 32.0203 13.6687 31.5172C13.6985 31.3346 13.723 31.1512 13.7421 30.9672C13.7984 30.3891 13.7296 29.6328 13.3359 29.1235L14.2765 28.2172C11.8827 26.9911 9.87443 25.1272 8.47341 22.8315C7.0724 20.5357 6.33319 17.8973 6.33745 15.2078C6.33567 13.7106 6.56331 12.222 7.01245 10.7938L8.57026 0.626583H21.2281V0.631271C29.0453 0.800022 35.3171 5.8969 35.3171 15.2094C35.3171 20.6813 32.6968 25.0875 28.7328 27.5719L28.7421 27.5797C28.4718 27.7672 28.1531 27.9594 27.8125 28.1641H27.8093C26.6843 28.8391 25.3093 29.6641 24.5859 31.011C23.9562 32.1781 23.8359 34.0735 23.8359 34.9531H23.8312V38.9406Z" fill="url(#paint4_linear_5_659)"/>
<g filter="url(#filter1_f_5_659)">
<path d="M6.00147 24.0173C6.00147 25.0748 6.42158 26.089 7.16938 26.8368C7.91718 27.5846 8.93142 28.0048 9.98897 28.0048H14.4046C15.2233 28.0048 16.0222 27.7528 16.6928 27.283C17.3633 26.8131 17.873 26.1483 18.1525 25.3788C18.4321 24.6092 18.468 23.7723 18.2553 22.9816C18.0427 22.191 17.5918 21.4849 16.964 20.9594C17.4426 20.5989 17.834 20.1353 18.1092 19.603C18.3844 19.0707 18.5363 18.4833 18.5537 17.8843C18.5711 17.2853 18.4536 16.69 18.2098 16.1426C17.9659 15.5952 17.6021 15.1097 17.1452 14.7219C17.5871 14.3479 17.942 13.8818 18.1852 13.3564C18.4284 12.8309 18.5539 12.2587 18.553 11.6798V11.4844C18.553 10.3907 18.1155 9.40163 17.403 8.68132C17.9497 8.14043 18.3232 7.44928 18.4763 6.69564C18.6293 5.94201 18.555 5.15989 18.2626 4.44861C17.9703 3.73734 17.4731 3.12898 16.8343 2.70081C16.1955 2.27263 15.4439 2.04396 14.6749 2.04382H10.2937C9.61187 2.04336 8.942 2.22257 8.35152 2.5634C7.76104 2.90424 7.27081 3.39466 6.9302 3.98526C6.58958 4.57587 6.41062 5.24581 6.41134 5.92759C6.41206 6.60938 6.59242 7.27893 6.93428 7.86882C6.24652 8.19006 5.66475 8.70094 5.25732 9.34142C4.84989 9.9819 4.63375 10.7254 4.63428 11.4844V11.6798C4.63428 12.9141 5.19366 14.0173 6.0749 14.7485C5.57269 15.185 5.18725 15.7398 4.95346 16.3628C4.71968 16.9858 4.64494 17.6572 4.73599 18.3164C4.82705 18.9755 5.08104 19.6015 5.47497 20.1378C5.8689 20.674 6.39034 21.1036 6.99209 21.3876C6.35222 22.114 5.99991 23.0492 6.00147 24.0173Z" fill="url(#paint5_linear_5_659)"/>
</g>
<g filter="url(#filter2_i_5_659)">
<path d="M6.98902 21.1406C4.47785 21.1406 2.44214 23.1763 2.44214 25.6875C2.44214 28.1987 4.47785 30.2344 6.98902 30.2344H12.025C14.5361 30.2344 16.5718 28.1987 16.5718 25.6875C16.5718 23.1763 14.5361 21.1406 12.025 21.1406H6.98902Z" fill="url(#paint6_linear_5_659)"/>
<path d="M6.98902 21.1406C4.47785 21.1406 2.44214 23.1763 2.44214 25.6875C2.44214 28.1987 4.47785 30.2344 6.98902 30.2344H12.025C14.5361 30.2344 16.5718 28.1987 16.5718 25.6875C16.5718 23.1763 14.5361 21.1406 12.025 21.1406H6.98902Z" fill="url(#paint7_radial_5_659)"/>
</g>
<g filter="url(#filter3_i_5_659)">
<path d="M7.33589 0.626563C4.89203 0.626563 2.91089 2.6077 2.91089 5.05156C2.91089 7.49542 4.89203 9.47656 7.33589 9.47656H12.3312C14.7751 9.47656 16.7562 7.49542 16.7562 5.05156C16.7562 2.6077 14.7751 0.626563 12.3312 0.626563H7.33589Z" fill="url(#paint8_linear_5_659)"/>
<path d="M7.33589 0.626563C4.89203 0.626563 2.91089 2.6077 2.91089 5.05156C2.91089 7.49542 4.89203 9.47656 7.33589 9.47656H12.3312C14.7751 9.47656 16.7562 7.49542 16.7562 5.05156C16.7562 2.6077 14.7751 0.626563 12.3312 0.626563H7.33589Z" fill="url(#paint9_radial_5_659)"/>
<path d="M7.33589 0.626563C4.89203 0.626563 2.91089 2.6077 2.91089 5.05156C2.91089 7.49542 4.89203 9.47656 7.33589 9.47656H12.3312C14.7751 9.47656 16.7562 7.49542 16.7562 5.05156C16.7562 2.6077 14.7751 0.626563 12.3312 0.626563H7.33589Z" fill="url(#paint10_radial_5_659)"/>
</g>
<path d="M7.33589 0.626563C4.89203 0.626563 2.91089 2.6077 2.91089 5.05156C2.91089 7.49542 4.89203 9.47656 7.33589 9.47656H12.3312C14.7751 9.47656 16.7562 7.49542 16.7562 5.05156C16.7562 2.6077 14.7751 0.626563 12.3312 0.626563H7.33589Z" fill="url(#paint11_linear_5_659)"/>
<path d="M7.33589 0.626563C4.89203 0.626563 2.91089 2.6077 2.91089 5.05156C2.91089 7.49542 4.89203 9.47656 7.33589 9.47656H12.3312C14.7751 9.47656 16.7562 7.49542 16.7562 5.05156C16.7562 2.6077 14.7751 0.626563 12.3312 0.626563H7.33589Z" fill="url(#paint12_radial_5_659)"/>
<g filter="url(#filter4_f_5_659)">
<path d="M5.10308 6.84534L11.1874 6.84534C11.8243 6.84534 12.3406 6.32906 12.3406 5.69221C12.3406 5.05536 11.8243 4.53909 11.1874 4.53909L5.10308 4.53909C4.46622 4.53909 3.94995 5.05536 3.94995 5.69221C3.94995 6.32906 4.46622 6.84534 5.10308 6.84534Z" fill="url(#paint13_linear_5_659)"/>
</g>
<path d="M5.54218 6.84531C2.96888 6.84531 0.882813 8.93138 0.882813 11.5047C0.882813 14.078 2.96888 16.1641 5.54218 16.1641H12.0969C14.6702 16.1641 16.7562 14.078 16.7562 11.5047C16.7562 8.93138 14.6702 6.84531 12.0969 6.84531H5.54218Z" fill="#C4C4C4" fill-opacity="0.66"/>
<g filter="url(#filter5_i_5_659)">
<path d="M0.882813 11.3922V11.6172C0.882813 14.1284 2.91852 16.1641 5.42969 16.1641H12.2094C14.7205 16.1641 16.7562 14.1284 16.7562 11.6172V11.3922C16.7562 8.88102 14.7205 6.84531 12.2094 6.84531H5.42969C2.91852 6.84531 0.882813 8.88102 0.882813 11.3922Z" fill="url(#paint14_linear_5_659)"/>
<path d="M0.882813 11.3922V11.6172C0.882813 14.1284 2.91852 16.1641 5.42969 16.1641H12.2094C14.7205 16.1641 16.7562 14.1284 16.7562 11.6172V11.3922C16.7562 8.88102 14.7205 6.84531 12.2094 6.84531H5.42969C2.91852 6.84531 0.882813 8.88102 0.882813 11.3922Z" fill="url(#paint15_radial_5_659)"/>
<path d="M0.882813 11.3922V11.6172C0.882813 14.1284 2.91852 16.1641 5.42969 16.1641H12.2094C14.7205 16.1641 16.7562 14.1284 16.7562 11.6172V11.3922C16.7562 8.88102 14.7205 6.84531 12.2094 6.84531H5.42969C2.91852 6.84531 0.882813 8.88102 0.882813 11.3922Z" fill="url(#paint16_radial_5_659)"/>
</g>
<g filter="url(#filter6_f_5_659)">
<path d="M3.59527 12.8922L11.7968 12.8922C12.4337 12.8922 12.95 12.3759 12.95 11.7391C12.95 11.1022 12.4337 10.586 11.7968 10.586L3.59527 10.586C2.95841 10.586 2.44214 11.1022 2.44214 11.7391C2.44214 12.3759 2.95841 12.8922 3.59527 12.8922Z" fill="url(#paint17_linear_5_659)"/>
</g>
<g filter="url(#filter7_i_5_659)">
<path d="M0.953125 18.5516V18.5719C0.953125 21.0831 2.98883 23.1188 5.5 23.1188H12.2094C14.7205 23.1188 16.7563 21.0831 16.7563 18.5719V18.5516C16.7563 16.0404 14.7205 14.0047 12.2094 14.0047H5.5C2.98883 14.0047 0.953125 16.0404 0.953125 18.5516Z" fill="url(#paint18_linear_5_659)"/>
<path d="M0.953125 18.5516V18.5719C0.953125 21.0831 2.98883 23.1188 5.5 23.1188H12.2094C14.7205 23.1188 16.7563 21.0831 16.7563 18.5719V18.5516C16.7563 16.0404 14.7205 14.0047 12.2094 14.0047H5.5C2.98883 14.0047 0.953125 16.0404 0.953125 18.5516Z" fill="url(#paint19_radial_5_659)"/>
</g>
<path d="M18.6938 44.0781C20.0562 44.0777 21.3627 43.5363 22.3261 42.5729C23.2894 41.6096 23.8308 40.303 23.8313 38.9406V34.9516L23.8344 34.9531C23.8344 34.075 23.9562 32.1781 24.5844 31.0109C25.3109 29.6625 26.6844 28.8391 27.8094 28.1656C28.1531 27.9594 28.4719 27.7687 28.7422 27.5812C27.1875 26.3359 24.0047 23.8469 23.9266 23.9062C22.1173 24.8849 20.3026 25.8536 18.4828 26.8125L18.5578 27.8906C17.2191 27.9261 15.9471 28.4827 15.0126 29.4419C14.0781 30.4012 13.555 31.6874 13.5547 33.0266L13.5547 38.9406C13.5551 40.3033 14.0967 41.6101 15.0604 42.5735C16.0242 43.5369 17.3311 44.0781 18.6938 44.0781Z" fill="url(#paint20_radial_5_659)"/>
<path d="M18.6938 44.0781C20.0562 44.0777 21.3627 43.5363 22.3261 42.5729C23.2894 41.6096 23.8308 40.303 23.8313 38.9406V34.9516L23.8344 34.9531C23.8344 34.075 23.9562 32.1781 24.5844 31.0109C25.3109 29.6625 26.6844 28.8391 27.8094 28.1656C28.1531 27.9594 28.4719 27.7687 28.7422 27.5812C27.1875 26.3359 24.0047 23.8469 23.9266 23.9062C22.1173 24.8849 20.3026 25.8536 18.4828 26.8125L18.5578 27.8906C17.2191 27.9261 15.9471 28.4827 15.0126 29.4419C14.0781 30.4012 13.555 31.6874 13.5547 33.0266L13.5547 38.9406C13.5551 40.3033 14.0967 41.6101 15.0604 42.5735C16.0242 43.5369 17.3311 44.0781 18.6938 44.0781Z" fill="url(#paint21_radial_5_659)"/>
<path d="M21.9437 42.9203C22.5342 42.4388 23.01 41.8318 23.3365 41.1434C23.663 40.455 23.832 39.7025 23.8312 38.9406V38.6406H21.5093C21.4997 39.2414 21.5447 39.8417 21.6437 40.4344L21.6702 40.5765C21.7984 41.2765 21.9452 42.0765 21.9437 42.9203Z" fill="#FFBF71"/>
<path d="M21.9437 42.9203C22.5342 42.4388 23.01 41.8318 23.3365 41.1434C23.663 40.455 23.832 39.7025 23.8312 38.9406V38.6406H21.5093C21.4997 39.2414 21.5447 39.8417 21.6437 40.4344L21.6702 40.5765C21.7984 41.2765 21.9452 42.0765 21.9437 42.9203Z" fill="url(#paint22_radial_5_659)"/>
<g filter="url(#filter8_f_5_659)">
<path d="M5.9156 28.9938H11.5719C12.6574 28.9938 13.5375 28.1137 13.5375 27.0282C13.5375 25.9426 12.6574 25.0625 11.5719 25.0625H5.9156C4.83002 25.0625 3.94998 25.9426 3.94998 27.0282C3.94998 28.1137 4.83002 28.9938 5.9156 28.9938Z" fill="url(#paint23_linear_5_659)"/>
</g>
<g filter="url(#filter9_f_5_659)">
<path d="M4.40781 22H11.6828C12.7684 22 13.6484 21.12 13.6484 20.0344C13.6484 18.9488 12.7684 18.0687 11.6828 18.0687H4.40781C3.32223 18.0687 2.44219 18.9488 2.44219 20.0344C2.44219 21.12 3.32223 22 4.40781 22Z" fill="url(#paint24_linear_5_659)"/>
</g>
<g filter="url(#filter10_f_5_659)">
<path d="M14.8516 39.8985C14.8516 41.1351 15.8537 42.1376 17.0898 42.1376C18.326 42.1376 19.3281 41.1351 19.3281 39.8985V31.8813C19.3281 30.6447 18.326 29.6423 17.0898 29.6423C15.8537 29.6423 14.8516 30.6447 14.8516 31.8813V39.8985Z" fill="url(#paint25_linear_5_659)"/>
</g>
<defs>
<filter id="filter0_i_5_659" x="6.3374" y="0.626587" width="29.4797" height="43.5427" filterUnits="userSpaceOnUse" color-interpolation-filters="sRGB">
<feFlood flood-opacity="0" result="BackgroundImageFix"/>
<feBlend mode="normal" in="SourceGraphic" in2="BackgroundImageFix" result="shape"/>
<feColorMatrix in="SourceAlpha" type="matrix" values="0 0 0 0 0 0 0 0 0 0 0 0 0 0 0 0 0 0 127 0" result="hardAlpha"/>
<feOffset dx="0.5"/>
<feGaussianBlur stdDeviation="1"/>
<feComposite in2="hardAlpha" operator="arithmetic" k2="-1" k3="1"/>
<feColorMatrix type="matrix" values="0 0 0 0 0.847059 0 0 0 0 0.458824 0 0 0 0 0.360784 0 0 0 1 0"/>
<feBlend mode="normal" in2="shape" result="effect1_innerShadow_5_659"/>
</filter>
<filter id="filter1_f_5_659" x="2.63428" y="0.0438232" width="17.9211" height="29.9609" filterUnits="userSpaceOnUse" color-interpolation-filters="sRGB">
<feFlood flood-opacity="0" result="BackgroundImageFix"/>
<feBlend mode="normal" in="SourceGraphic" in2="BackgroundImageFix" result="shape"/>
<feGaussianBlur stdDeviation="1" result="effect1_foregroundBlur_5_659"/>
</filter>
<filter id="filter2_i_5_659" x="2.44214" y="21.1406" width="14.6296" height="9.09375" filterUnits="userSpaceOnUse" color-interpolation-filters="sRGB">
<feFlood flood-opacity="0" result="BackgroundImageFix"/>
<feBlend mode="normal" in="SourceGraphic" in2="BackgroundImageFix" result="shape"/>
<feColorMatrix in="SourceAlpha" type="matrix" values="0 0 0 0 0 0 0 0 0 0 0 0 0 0 0 0 0 0 127 0" result="hardAlpha"/>
<feOffset dx="0.5"/>
<feGaussianBlur stdDeviation="0.75"/>
<feComposite in2="hardAlpha" operator="arithmetic" k2="-1" k3="1"/>
<feColorMatrix type="matrix" values="0 0 0 0 0.878431 0 0 0 0 0.541176 0 0 0 0 0.0627451 0 0 0 1 0"/>
<feBlend mode="normal" in2="shape" result="effect1_innerShadow_5_659"/>
</filter>
<filter id="filter3_i_5_659" x="2.91089" y="0.126587" width="14.3453" height="9.34998" filterUnits="userSpaceOnUse" color-interpolation-filters="sRGB">
<feFlood flood-opacity="0" result="BackgroundImageFix"/>
<feBlend mode="normal" in="SourceGraphic" in2="BackgroundImageFix" result="shape"/>
<feColorMatrix in="SourceAlpha" type="matrix" values="0 0 0 0 0 0 0 0 0 0 0 0 0 0 0 0 0 0 127 0" result="hardAlpha"/>
<feOffset dx="0.5" dy="-0.5"/>
<feGaussianBlur stdDeviation="0.75"/>
<feComposite in2="hardAlpha" operator="arithmetic" k2="-1" k3="1"/>
<feColorMatrix type="matrix" values="0 0 0 0 0.941176 0 0 0 0 0.643137 0 0 0 0 0.215686 0 0 0 1 0"/>
<feBlend mode="normal" in2="shape" result="effect1_innerShadow_5_659"/>
</filter>
<filter id="filter4_f_5_659" x="2.69995" y="3.28906" width="10.8906" height="4.80627" filterUnits="userSpaceOnUse" color-interpolation-filters="sRGB">
<feFlood flood-opacity="0" result="BackgroundImageFix"/>
<feBlend mode="normal" in="SourceGraphic" in2="BackgroundImageFix" result="shape"/>
<feGaussianBlur stdDeviation="0.625" result="effect1_foregroundBlur_5_659"/>
</filter>
<filter id="filter5_i_5_659" x="0.882812" y="6.34534" width="16.3734" height="9.81873" filterUnits="userSpaceOnUse" color-interpolation-filters="sRGB">
<feFlood flood-opacity="0" result="BackgroundImageFix"/>
<feBlend mode="normal" in="SourceGraphic" in2="BackgroundImageFix" result="shape"/>
<feColorMatrix in="SourceAlpha" type="matrix" values="0 0 0 0 0 0 0 0 0 0 0 0 0 0 0 0 0 0 127 0" result="hardAlpha"/>
<feOffset dx="0.5" dy="-0.5"/>
<feGaussianBlur stdDeviation="0.75"/>
<feComposite in2="hardAlpha" operator="arithmetic" k2="-1" k3="1"/>
<feColorMatrix type="matrix" values="0 0 0 0 0.941176 0 0 0 0 0.643137 0 0 0 0 0.215686 0 0 0 1 0"/>
<feBlend mode="normal" in2="shape" result="effect1_innerShadow_5_659"/>
</filter>
<filter id="filter6_f_5_659" x="1.19214" y="9.33594" width="13.0078" height="4.80627" filterUnits="userSpaceOnUse" color-interpolation-filters="sRGB">
<feFlood flood-opacity="0" result="BackgroundImageFix"/>
<feBlend mode="normal" in="SourceGraphic" in2="BackgroundImageFix" result="shape"/>
<feGaussianBlur stdDeviation="0.625" result="effect1_foregroundBlur_5_659"/>
</filter>
<filter id="filter7_i_5_659" x="0.953125" y="13.5048" width="16.3031" height="9.61401" filterUnits="userSpaceOnUse" color-interpolation-filters="sRGB">
<feFlood flood-opacity="0" result="BackgroundImageFix"/>
<feBlend mode="normal" in="SourceGraphic" in2="BackgroundImageFix" result="shape"/>
<feColorMatrix in="SourceAlpha" type="matrix" values="0 0 0 0 0 0 0 0 0 0 0 0 0 0 0 0 0 0 127 0" result="hardAlpha"/>
<feOffset dx="0.5" dy="-0.5"/>
<feGaussianBlur stdDeviation="0.75"/>
<feComposite in2="hardAlpha" operator="arithmetic" k2="-1" k3="1"/>
<feColorMatrix type="matrix" values="0 0 0 0 0.941176 0 0 0 0 0.643137 0 0 0 0 0.215686 0 0 0 1 0"/>
<feBlend mode="normal" in2="shape" result="effect1_innerShadow_5_659"/>
</filter>
<filter id="filter8_f_5_659" x="2.69995" y="23.8125" width="12.0875" height="6.43127" filterUnits="userSpaceOnUse" color-interpolation-filters="sRGB">
<feFlood flood-opacity="0" result="BackgroundImageFix"/>
<feBlend mode="normal" in="SourceGraphic" in2="BackgroundImageFix" result="shape"/>
<feGaussianBlur stdDeviation="0.625" result="effect1_foregroundBlur_5_659"/>
</filter>
<filter id="filter9_f_5_659" x="1.19214" y="16.8187" width="13.7063" height="6.43127" filterUnits="userSpaceOnUse" color-interpolation-filters="sRGB">
<feFlood flood-opacity="0" result="BackgroundImageFix"/>
<feBlend mode="normal" in="SourceGraphic" in2="BackgroundImageFix" result="shape"/>
<feGaussianBlur stdDeviation="0.625" result="effect1_foregroundBlur_5_659"/>
</filter>
<filter id="filter10_f_5_659" x="13.6016" y="28.3922" width="6.97656" height="14.9954" filterUnits="userSpaceOnUse" color-interpolation-filters="sRGB">
<feFlood flood-opacity="0" result="BackgroundImageFix"/>
<feBlend mode="normal" in="SourceGraphic" in2="BackgroundImageFix" result="shape"/>
<feGaussianBlur stdDeviation="0.625" result="effect1_foregroundBlur_5_659"/>
</filter>
<linearGradient id="paint0_linear_5_659" x1="12.9156" y1="36.6266" x2="28.639" y2="3.52033" gradientUnits="userSpaceOnUse">
<stop stop-color="#FFCA44"/>
<stop offset="1" stop-color="#F8A528"/>
</linearGradient>
<radialGradient id="paint1_radial_5_659" cx="0" cy="0" r="1" gradientUnits="userSpaceOnUse" gradientTransform="translate(11.0621 39.4297) rotate(-38.884) scale(7.83694 23.1303)">
<stop stop-color="#FFE34C"/>
<stop offset="1" stop-color="#FFE34C" stop-opacity="0"/>
</radialGradient>
<radialGradient id="paint2_radial_5_659" cx="0" cy="0" r="1" gradientUnits="userSpaceOnUse" gradientTransform="translate(25.3303 22.3515) rotate(-54.809) scale(11.6097 8.41025)">
<stop stop-color="#FFCA2E"/>
<stop offset="1" stop-color="#FFCA2E" stop-opacity="0"/>
</radialGradient>
<radialGradient id="paint3_radial_5_659" cx="0" cy="0" r="1" gradientUnits="userSpaceOnUse" gradientTransform="translate(12.7343 18.6703) rotate(-33.257) scale(25.298 44.2723)">
<stop offset="0.681" stop-color="#E18E3F" stop-opacity="0"/>
<stop offset="1" stop-color="#E18E3F"/>
</radialGradient>
<linearGradient id="paint4_linear_5_659" x1="20.8281" y1="7.0594" x2="20.8281" y2="-0.910914" gradientUnits="userSpaceOnUse">
<stop stop-color="#D8796F" stop-opacity="0"/>
<stop offset="1" stop-color="#D8796F"/>
</linearGradient>
<linearGradient id="paint5_linear_5_659" x1="11.5937" y1="28.0048" x2="11.5937" y2="7.24226" gradientUnits="userSpaceOnUse">
<stop stop-color="#D1730B"/>
<stop offset="1" stop-color="#E27D47"/>
</linearGradient>
<linearGradient id="paint6_linear_5_659" x1="2.44214" y1="25.6875" x2="16.5734" y2="25.6875" gradientUnits="userSpaceOnUse">
<stop stop-color="#FFDB44"/>
<stop offset="1" stop-color="#F9A928"/>
</linearGradient>
<radialGradient id="paint7_radial_5_659" cx="0" cy="0" r="1" gradientUnits="userSpaceOnUse" gradientTransform="translate(14.275 21.6562) rotate(37.367) scale(3.62672 2.42762)">
<stop stop-color="#D98320"/>
<stop offset="1" stop-color="#D98320" stop-opacity="0"/>
</radialGradient>
<linearGradient id="paint8_linear_5_659" x1="4.12339" y1="5.05313" x2="16.7562" y2="5.05313" gradientUnits="userSpaceOnUse">
<stop stop-color="#FFDB44"/>
<stop offset="1" stop-color="#F9A928"/>
</linearGradient>
<radialGradient id="paint9_radial_5_659" cx="0" cy="0" r="1" gradientUnits="userSpaceOnUse" gradientTransform="translate(13.9515 0.628126) rotate(-180) scale(11.4273 4.34722)">
<stop stop-color="#F29545"/>
<stop offset="1" stop-color="#F29545" stop-opacity="0"/>
</radialGradient>
<radialGradient id="paint10_radial_5_659" cx="0" cy="0" r="1" gradientUnits="userSpaceOnUse" gradientTransform="translate(14.5 7.925) rotate(-180) scale(11.5889 3.11087)">
<stop stop-color="#DA810B"/>
<stop offset="1" stop-color="#FFB610" stop-opacity="0"/>
</radialGradient>
<linearGradient id="paint11_linear_5_659" x1="9.83433" y1="-0.284375" x2="9.83433" y2="2.57813" gradientUnits="userSpaceOnUse">
<stop stop-color="#DC7C6A"/>
<stop offset="1" stop-color="#DC7C6A" stop-opacity="0"/>
</linearGradient>
<radialGradient id="paint12_radial_5_659" cx="0" cy="0" r="1" gradientUnits="userSpaceOnUse" gradientTransform="translate(18.589 5.05313) rotate(-180) scale(8.75506 13.1605)">
<stop stop-color="#E38811"/>
<stop offset="1" stop-color="#E38811" stop-opacity="0"/>
</radialGradient>
<linearGradient id="paint13_linear_5_659" x1="4.38589" y1="6.21409" x2="13.4312" y2="6.21409" gradientUnits="userSpaceOnUse">
<stop stop-color="#FFF166"/>
<stop offset="1" stop-color="#FFF166" stop-opacity="0"/>
</linearGradient>
<linearGradient id="paint14_linear_5_659" x1="2.27344" y1="11.5047" x2="16.7562" y2="11.5047" gradientUnits="userSpaceOnUse">
<stop stop-color="#FFDB44"/>
<stop offset="1" stop-color="#F9A928"/>
</linearGradient>
<radialGradient id="paint15_radial_5_659" cx="0" cy="0" r="1" gradientUnits="userSpaceOnUse" gradientTransform="translate(13.5406 6.84531) rotate(-180) scale(13.1018 4.57761)">
<stop stop-color="#F29545"/>
<stop offset="1" stop-color="#F29545" stop-opacity="0"/>
</radialGradient>
<radialGradient id="paint16_radial_5_659" cx="0" cy="0" r="1" gradientUnits="userSpaceOnUse" gradientTransform="translate(14.1703 14.5281) rotate(-180) scale(13.2871 3.27575)">
<stop stop-color="#DA810B"/>
<stop offset="1" stop-color="#FFB610" stop-opacity="0"/>
</radialGradient>
<linearGradient id="paint17_linear_5_659" x1="2.98901" y1="12.261" x2="14.314" y2="12.261" gradientUnits="userSpaceOnUse">
<stop stop-color="#FFF166"/>
<stop offset="1" stop-color="#FFF166" stop-opacity="0"/>
</linearGradient>
<linearGradient id="paint18_linear_5_659" x1="0.953125" y1="18.561" x2="16.7547" y2="18.561" gradientUnits="userSpaceOnUse">
<stop stop-color="#FFDB44"/>
<stop offset="1" stop-color="#F9A928"/>
</linearGradient>
<radialGradient id="paint19_radial_5_659" cx="0" cy="0" r="1" gradientUnits="userSpaceOnUse" gradientTransform="translate(13.4875 15.1063) rotate(180) scale(8.5948 3.82573)">
<stop stop-color="#F29545"/>
<stop offset="1" stop-color="#F29545" stop-opacity="0"/>
</radialGradient>
<radialGradient id="paint20_radial_5_659" cx="0" cy="0" r="1" gradientUnits="userSpaceOnUse" gradientTransform="translate(23.4109 39.4312) rotate(-90) scale(9.9377 3.68973)">
<stop stop-color="#F3A52A"/>
<stop offset="1" stop-color="#F3A52A" stop-opacity="0"/>
</radialGradient>
<radialGradient id="paint21_radial_5_659" cx="0" cy="0" r="1" gradientUnits="userSpaceOnUse" gradientTransform="translate(26.3125 32.8875) rotate(-137.003) scale(4.97761 7.53196)">
<stop stop-color="#CDA25E"/>
<stop offset="1" stop-color="#CDA25E" stop-opacity="0"/>
</radialGradient>
<radialGradient id="paint22_radial_5_659" cx="0" cy="0" r="1" gradientUnits="userSpaceOnUse" gradientTransform="translate(21.1459 40.0455) rotate(11.634) scale(2.56166 5.59139)">
<stop offset="0.55" stop-color="#CCB28B" stop-opacity="0"/>
<stop offset="1" stop-color="#CCB28B"/>
</radialGradient>
<linearGradient id="paint23_linear_5_659" x1="4.44841" y1="27.9156" x2="14.7828" y2="27.9156" gradientUnits="userSpaceOnUse">
<stop stop-color="#FFF166"/>
<stop offset="1" stop-color="#FFF166" stop-opacity="0"/>
</linearGradient>
<linearGradient id="paint24_linear_5_659" x1="3.025" y1="20.9219" x2="15.1047" y2="20.9219" gradientUnits="userSpaceOnUse">
<stop stop-color="#FFF166"/>
<stop offset="1" stop-color="#FFF166" stop-opacity="0"/>
</linearGradient>
<linearGradient id="paint25_linear_5_659" x1="15.0828" y1="38.711" x2="19.9094" y2="38.711" gradientUnits="userSpaceOnUse">
<stop stop-color="#FFF166"/>
<stop offset="1" stop-color="#FFF166" stop-opacity="0"/>
</linearGradient>
</defs>
</svg>
